<svg xmlns="http://www.w3.org/2000/svg" fill="none" viewBox="0 0 24 24" height="24" width="24">
<rect fill="#D2DAE4" rx="4" height="24" width="24"></rect>
<path fill-opacity="0.9" fill="black" d="M14.6699 11.6376C14.8556 11.6573 15 11.8141 15 12.0009C15 14.382 14.7164 16.5566 14.2471 18.1522C14.0134 18.9465 13.7258 19.626 13.3838 20.1181C13.0519 20.5953 12.592 21.0008 12 21.0009C11.408 21.0008 10.9481 20.5953 10.6162 20.1181C10.2742 19.626 9.98655 18.9465 9.75293 18.1522C9.64937 17.8001 9.55614 17.4192 9.47266 17.0145C9.40742 16.6971 9.66681 16.4119 9.99023 16.4335C10.2176 16.4487 10.4104 16.6148 10.457 16.8378C10.5339 17.2067 10.6185 17.5524 10.7119 17.87C10.9306 18.6136 11.1815 19.1796 11.4375 19.5477C11.7034 19.9301 11.9018 20.0008 12 20.0009C12.0982 20.0008 12.2966 19.9301 12.5625 19.5477C12.8185 19.1796 13.0694 18.6136 13.2881 17.87C13.7236 16.3893 14 14.314 14 12.0009C14 11.7728 14.1899 11.5907 14.417 11.6122C14.5021 11.6203 14.5864 11.6287 14.6699 11.6376ZM6.98438 9.47353C7.30159 9.40798 7.5871 9.66692 7.56641 9.99013C7.55176 10.2174 7.38601 10.4103 7.16309 10.4569C6.79398 10.5341 6.44864 10.6193 6.13086 10.7128C5.38721 10.9315 4.82131 11.1823 4.45312 11.4384C4.07048 11.7045 4 11.9027 4 12.0009C4.00004 12.0991 4.07055 12.2973 4.45312 12.5634C4.82131 12.8194 5.38722 13.0702 6.13086 13.289C7.61162 13.7244 9.68681 14.0009 12 14.0009C12.2275 14.0009 12.4086 14.1895 12.3867 14.4159C12.3782 14.5029 12.3696 14.5894 12.3604 14.6747C12.3403 14.8587 12.185 15.0009 12 15.0009C9.61889 15.0009 7.44426 14.7172 5.84863 14.2479C5.05427 14.0143 4.37485 13.7267 3.88281 13.3847C3.40549 13.0527 3.00004 12.593 3 12.0009C3 11.4087 3.40548 10.949 3.88281 10.6171C4.37485 10.275 5.05425 9.98744 5.84863 9.7538C6.2003 9.65037 6.5803 9.55702 6.98438 9.47353ZM12 9.00087C14.3811 9.00087 16.5557 9.2845 18.1514 9.7538C18.9457 9.98744 19.6252 10.275 20.1172 10.6171C20.5945 10.949 21 11.4087 21 12.0009C21 12.593 20.5945 13.0527 20.1172 13.3847C19.6252 13.7267 18.9457 14.0143 18.1514 14.2479C17.7995 14.3514 17.4191 14.444 17.0146 14.5272C16.6974 14.5925 16.412 14.3338 16.4326 14.0106C16.4473 13.7833 16.613 13.5903 16.8359 13.5438C17.2054 13.4669 17.5511 13.3825 17.8691 13.289C18.6128 13.0702 19.1787 12.8194 19.5469 12.5634C19.9295 12.2973 20 12.0991 20 12.0009C20 11.9027 19.9295 11.7045 19.5469 11.4384C19.1787 11.1823 18.6128 10.9315 17.8691 10.7128C16.3884 10.2773 14.3132 10.0009 12 10.0009C11.7721 10.0009 11.5905 9.81069 11.6123 9.58388C11.6207 9.49759 11.6295 9.41167 11.6387 9.32704C11.6587 9.14254 11.8144 9.00087 12 9.00087ZM12 3.00087C12.592 3.00097 13.0519 3.40644 13.3838 3.88368C13.7258 4.3757 14.0134 5.05519 14.2471 5.8495C14.3505 6.20104 14.4432 6.58128 14.5264 6.98524C14.5916 7.30277 14.3323 7.5881 14.0088 7.56728C13.7815 7.55251 13.5884 7.38692 13.542 7.16396C13.4654 6.79501 13.3815 6.44931 13.2881 6.13173C13.0694 5.38816 12.8185 4.82218 12.5625 4.45399C12.2966 4.07168 12.0982 4.00097 12 4.00087C11.9018 4.00097 11.7034 4.07168 11.4375 4.45399C11.1815 4.82218 10.9306 5.38816 10.7119 6.13173C10.2764 7.61248 10 9.6877 10 12.0009C10 12.2283 9.81042 12.4098 9.58398 12.3886C9.49766 12.3804 9.41181 12.3722 9.32715 12.3632C9.14206 12.3435 9 12.187 9 12.0009C9 9.61978 9.28364 7.44512 9.75293 5.8495C9.98655 5.05519 10.2742 4.3757 10.6162 3.88368C10.9481 3.40644 11.408 3.00097 12 3.00087Z"></path>
</svg>
